<svg xmlns="http://www.w3.org/2000/svg" version="1.1" xmlns:xlink="http://www.w3.org/1999/xlink" xmlns:svgjs="http://svgjs.dev/svgjs" width="1500" height="1550" viewBox="0 0 1500 1550"><g transform="matrix(1,0,0,1,0.3537459895757138,0.6275303643724328)"><svg viewBox="0 0 239 247" data-background-color="#ffffff" preserveAspectRatio="xMidYMid meet" height="1550" width="1500" xmlns="http://www.w3.org/2000/svg" xmlns:xlink="http://www.w3.org/1999/xlink"><g id="tight-bounds" transform="matrix(1,0,0,1,-0.056363527672402824,-0.09999999999999432)"><svg viewBox="0 0 239.1127270553448 247.2" height="247.2" width="239.1127270553448"><g><svg viewBox="0 0 239.1127270553448 247.2" height="247.2" width="239.1127270553448"><g><svg viewBox="0 0 397.4975999999999 410.94176763437804" height="247.2" width="239.1127270553448"><g><svg viewBox="0 0 397.4975999999999 155.49493594726155" height="155.49493594726155" width="397.4975999999999"><g id="textblocktransform"><svg viewBox="0 0 397.4975999999999 155.49493594726155" height="155.49493594726155" width="397.4975999999999" id="textblock"><g><rect width="397.4975999999999" height="9.28611612519124" x="0" y="113.91108545817076" fill="#000000" opacity="1" stroke-width="0" stroke="transparent" fill-opacity="1" class="rect-qz-0" data-fill-palette-color="primary" rx="1%" id="qz-0" data-palette-color="#000000"></rect></g><g transform="matrix(1,0,0,1,0.9887999999999693,0)"><svg viewBox="0 0 395.52 102.97194342587741" height="102.97194342587741" width="395.52"><g transform="matrix(1,0,0,1,0,0)"><svg width="395.52" viewBox="0.75 -38.7 190.88 49.7" height="102.97194342587741" data-palette-color="#000000"><path d="M31.4-0.85L24.2 0.25 21.75-9.5 9.8-9.5 7.15 0 0.75-0.5 5.15-12.65 11.85-34.15 20.8-34.8 27.25-13.4 31.4-0.85ZM20.25-14.8L16.3-28.3 15.65-28.3 11.35-14.8 20.25-14.8ZM34.1-24.2L37-24.2 37-29.65 43.75-30.95 43.1-24.2 49.15-24.2 48.6-20.1 42.9-20.1 42.65-9.65Q42.65-7.3 43.1-6.53 43.55-5.75 44.75-5.75 45.95-5.75 47.95-6.3L47.95-6.3 48.25-2.75Q44.95 0 42.45 0 39.95 0 38.35-1.83 36.75-3.65 36.75-6.6L36.75-6.6 37.05-12.2 37-20.1 33.55-20.1 34.1-24.2ZM51.85-24.2L54.75-24.2 54.75-29.65 61.5-30.95 60.85-24.2 66.9-24.2 66.34-20.1 60.65-20.1 60.4-9.65Q60.4-7.3 60.85-6.53 61.3-5.75 62.5-5.75 63.7-5.75 65.7-6.3L65.7-6.3 66-2.75Q62.7 0 60.2 0 57.7 0 56.1-1.83 54.5-3.65 54.5-6.6L54.5-6.6 54.8-12.2 54.75-20.1 51.3-20.1 51.85-24.2ZM79.54-5.1L79.54-5.1Q80.99-5.1 82.59-5.85 84.19-6.6 85.09-7.35L85.09-7.35 85.99-8.1 88.29-5.3Q87.79-4.45 86.74-3.35 85.69-2.25 84.62-1.48 83.54-0.7 81.77-0.08 79.99 0.55 78.09 0.55L78.09 0.55Q74.04 0.55 71.49-2.53 68.94-5.6 68.94-10.45L68.94-10.45Q68.94-16.55 72.49-21.15 76.04-25.75 80.79-25.75L80.79-25.75Q84.44-25.75 86.47-23.7 88.49-21.65 88.49-17.95L88.49-17.95Q88.49-15.75 87.74-12.95L87.74-12.95 86.74-11.9 74.24-10.75Q75.09-5.1 79.54-5.1ZM79.54-20.6L79.54-20.6Q77.34-20.6 75.84-18.82 74.34-17.05 74.09-14.3L74.09-14.3 82.59-15.35Q82.74-16.5 82.74-17.25L82.74-17.25Q82.74-20.6 79.54-20.6ZM107.34-12.65Q107.34-16.1 106.74-17.25 106.14-18.4 103.94-18.4 101.74-18.4 98.94-16.65L98.94-16.65 98.94-13 99.49-1.25 92.79 0 93.39-12.15Q93.19-18.85 92.29-24.15L92.29-24.15 98.34-25.45Q98.69-22.55 98.84-19.8L98.84-19.8Q99.59-20.8 100.54-21.78 101.49-22.75 103.54-23.98 105.59-25.2 107.87-25.2 110.14-25.2 111.69-23.43 113.24-21.65 113.24-18.6L113.24-18.6 112.94-13 113.49-1 106.74 0.25 107.34-12.65ZM132.19-4.9L132.19-4.9Q128.29 0 125.44 0L125.44 0Q121.89 0 119.61-2.9 117.34-5.8 117.34-10.35L117.34-10.35Q117.34-16.6 120.81-20.9 124.29-25.2 129.34-25.2L129.34-25.2 132.14-24.8 132.14-25.75 131.54-37.45 138.39-38.7 137.74-13 137.74-8.6Q137.74-5.6 139.24-1.7L139.24-1.7 133.84 0.55Q132.39-2.45 132.19-4.9ZM122.94-12.95Q122.94-9.75 124.11-7.95 125.29-6.15 127.51-6.15 129.74-6.15 132.14-7.95L132.14-7.95 132.14-18.75Q129.14-19.35 127.69-19.35L127.69-19.35Q125.44-19.35 124.19-17.75 122.94-16.15 122.94-12.95ZM144.09-24.2L150.79-25.45 150.19-13 150.74-1.25 144.04 0 144.64-12.15 144.09-24.2ZM143.74-32.77Q143.74-34.45 145.04-35.77 146.34-37.1 148.04-37.1 149.74-37.1 150.64-36.18 151.54-35.25 151.54-33.4 151.54-31.55 150.26-30.23 148.99-28.9 147.31-28.9 145.64-28.9 144.69-30 143.74-31.1 143.74-32.77ZM171.18-38.25L169.63-32.55Q167.78-33 166.28-33 164.78-33 164.11-32.1 163.43-31.2 163.43-28.95L163.43-28.95 163.38-24.2 168.78-24.2 168.23-20.1 163.38-20.1 163.33-13 163.88-1.25 157.13 0 157.73-12.15 157.53-20.1 154.23-20.1 154.78-24.2 157.43-24.2 157.38-28Q157.38-32.45 160.13-35.58 162.88-38.7 166.83-38.7L166.83-38.7Q168.93-38.7 171.18-38.25L171.18-38.25ZM178.58 11L172.13 9.65 177.28-1.9 173.58-12 168.53-24.15 175.18-25.4 178.38-14.75 180.03-9.7 180.68-9.7 181.88-13.35 185.48-25.45 191.63-24.7 182.78-1.45 178.58 11Z" opacity="1" transform="matrix(1,0,0,1,0,0)" fill="#000000" class="wordmark-text-0" data-fill-palette-color="primary" id="text-0"></path></svg></g></svg></g><g transform="matrix(1,0,0,1,105.80159999999997,134.13634361565533)"><svg viewBox="0 0 185.8944 21.358592331606218" height="21.358592331606218" width="185.8944"><g transform="matrix(1,0,0,1,0,0)"><svg width="185.8944" viewBox="1.5 -38.7 385.95 44.35" height="21.358592331606218" data-palette-color="#000000"><path d="M14.65 0.55L14.65 0.55Q9.1 0.55 5.3-4.1 1.5-8.75 1.5-15.5L1.5-15.5Q1.5-23.75 6.08-29.4 10.65-35.05 17.3-35.05L17.3-35.05Q19.9-35.05 22.13-34.52 24.35-34 25.3-33.45L25.3-33.45 26.2-32.9 22.8-25.95Q21.65-26.95 19.55-27.83 17.45-28.7 15.75-28.7L15.75-28.7Q12.3-28.7 10.23-25.85 8.15-23 8.15-17.73 8.15-12.45 10.3-9.08 12.45-5.7 16.15-5.7L16.15-5.7Q18.55-5.7 20.5-7.2 22.45-8.7 23.25-11.2L23.25-11.2 27.4-8.8Q25.75-4.4 22.35-1.93 18.95 0.55 14.65 0.55ZM30.45-37.45L37.3-38.7 36.65-13 37.2-1.25 30.45 0 31.05-12.15 30.45-37.45ZM41.59-10.45Q41.59-16.85 45.05-21.3 48.5-25.75 53.12-25.75 57.75-25.75 60.32-22.75 62.9-19.75 62.9-14.8L62.9-14.8Q62.9-8.2 59.57-3.83 56.25 0.55 51.2 0.55L51.2 0.55Q47.05 0.55 44.32-2.58 41.59-5.7 41.59-10.45L41.59-10.45ZM57.3-12.2L57.3-12.2Q57.3-19.45 52.34-19.45L52.34-19.45Q47.2-19.45 47.2-12.65L47.2-12.65Q47.2-9.1 48.65-7.1 50.09-5.1 52.47-5.1 54.84-5.1 56.07-6.93 57.3-8.75 57.3-12.2ZM75.79-19.25Q73.59-19.25 72.39-17.68 71.19-16.1 71.19-12.85 71.19-9.6 72.42-7.63 73.64-5.65 75.99-5.65L75.99-5.65Q77.19-5.65 78.34-6.4 79.49-7.15 80.09-7.9L80.09-7.9 80.64-8.7 83.14-6.1Q82.99-5.85 82.77-5.4 82.54-4.95 81.67-3.8 80.79-2.65 79.82-1.78 78.84-0.9 77.29-0.18 75.74 0.55 74.04 0.55L74.04 0.55Q70.29 0.55 67.94-2.5 65.59-5.55 65.59-10.45L65.59-10.45Q65.59-16.55 69.14-21.15 72.69-25.75 77.44-25.75L77.44-25.75Q78.89-25.75 80.34-25.33 81.79-24.9 83.29-24L83.29-24 79.79-17.85Q77.99-19.25 75.79-19.25ZM107.74-3.3L102.04 0.5 92.64-13.35 92.64-13 93.19-1.25 86.44 0 87.04-12.15 86.44-37.45 93.29-38.7 92.64-14.55 102.64-25.5 107.34-22.3 98.59-14.1 107.74-3.3ZM119.34-33.5L126.44-34.75 125.74-13 126.34 0 119.34 0 119.94-12.15 119.34-33.5ZM147.83-12.65Q147.83-16.1 147.23-17.25 146.63-18.4 144.43-18.4 142.23-18.4 139.43-16.65L139.43-16.65 139.43-13 139.98-1.25 133.28 0 133.88-12.15Q133.68-18.85 132.78-24.15L132.78-24.15 138.83-25.45Q139.18-22.55 139.33-19.8L139.33-19.8Q140.08-20.8 141.03-21.78 141.98-22.75 144.03-23.98 146.08-25.2 148.36-25.2 150.63-25.2 152.18-23.43 153.73-21.65 153.73-18.6L153.73-18.6 153.43-13 153.98-1 147.23 0.25 147.83-12.65ZM164.83-3.35L164.83-3.35Q164.83 0.9 158.63 5.65L158.63 5.65 156.58 4.15Q159.53 0.7 159.53-1.8L159.53-1.8Q159.53-3.35 158.23-5.75L158.23-5.75 163.13-7.7Q164.83-5.55 164.83-3.35ZM175.18-4.55L179.08-9.95Q183.33-5.7 187.58-5.7L187.58-5.7Q189.78-5.7 191.1-6.73 192.43-7.75 192.43-9.38 192.43-11 190.83-12.13 189.23-13.25 186.95-14.1 184.68-14.95 182.43-16.03 180.18-17.1 178.58-19.1 176.98-21.1 176.98-23.95L176.98-23.95Q176.98-28.45 180.73-31.73 184.48-35 189.63-35L189.63-35Q191.98-35 194.18-34.5 196.38-34 198.43-33.05L198.43-33.05 195.03-25.75Q193.63-26.85 191.2-27.78 188.78-28.7 186.95-28.7 185.13-28.7 184-27.83 182.88-26.95 182.88-25.5 182.88-24.05 184.48-22.93 186.08-21.8 188.35-20.95 190.63-20.1 192.9-19.07 195.18-18.05 196.78-16.05 198.38-14.05 198.38-11.2L198.38-11.2Q198.38-6.5 194.63-2.98 190.88 0.55 185.88 0.55L185.88 0.55Q182.13 0.55 179.23-1.25L179.23-1.25Q176.68-2.8 175.63-4L175.63-4 175.18-4.55ZM201.62-24.2L204.52-24.2 204.52-29.65 211.27-30.95 210.62-24.2 216.67-24.2 216.12-20.1 210.42-20.1 210.17-9.65Q210.17-7.3 210.62-6.53 211.07-5.75 212.27-5.75 213.47-5.75 215.47-6.3L215.47-6.3 215.77-2.75Q212.47 0 209.97 0 207.47 0 205.87-1.83 204.27-3.65 204.27-6.6L204.27-6.6 204.57-12.2 204.52-20.1 201.07-20.1 201.62-24.2ZM225.32 0Q222.37 0 220.5-1.88 218.62-3.75 218.62-6.93 218.62-10.1 221.52-12.43 224.42-14.75 228.57-14.75L228.57-14.75 231.97-14.75 231.97-15.6Q231.97-18.05 230.97-18.95 229.97-19.85 227.22-19.85L227.22-19.85Q226.07-19.85 224.5-19.38 222.92-18.9 220.97-17.9L220.97-17.9 219.52-21.85Q221.67-23.35 224.75-24.55 227.82-25.75 229.82-25.75L229.82-25.75Q237.67-25.75 237.67-18.15L237.67-18.15 237.67-8.35Q237.67-5.55 239.42-2.1L239.42-2.1 234.12 0.15Q232.87-2.25 232.27-4.15L232.27-4.15Q229.52 0 225.32 0L225.32 0ZM227.42-5.1L227.42-5.1Q229.42-5.1 231.97-7.15L231.97-7.15 231.97-10.5Q229.32-11.1 227.67-11.1L227.67-11.1Q224.52-11.1 224.52-8.3L224.52-8.3Q224.52-6.85 225.32-5.98 226.12-5.1 227.42-5.1ZM258.27-12.65Q258.27-16.1 257.67-17.25 257.07-18.4 254.87-18.4 252.67-18.4 249.87-16.65L249.87-16.65 249.87-13 250.42-1.25 243.72 0 244.32-12.15Q244.12-18.85 243.22-24.15L243.22-24.15 249.27-25.45Q249.62-22.55 249.77-19.8L249.77-19.8Q250.52-20.8 251.47-21.78 252.42-22.75 254.47-23.98 256.52-25.2 258.79-25.2 261.07-25.2 262.62-23.43 264.17-21.65 264.17-18.6L264.17-18.6 263.87-13 264.42-1 257.67 0.25 258.27-12.65ZM283.12-4.9L283.12-4.9Q279.22 0 276.37 0L276.37 0Q272.82 0 270.54-2.9 268.27-5.8 268.27-10.35L268.27-10.35Q268.27-16.6 271.74-20.9 275.22-25.2 280.27-25.2L280.27-25.2 283.07-24.8 283.07-25.75 282.47-37.45 289.32-38.7 288.67-13 288.67-8.6Q288.67-5.6 290.17-1.7L290.17-1.7 284.77 0.55Q283.32-2.45 283.12-4.9ZM273.87-12.95Q273.87-9.75 275.04-7.95 276.22-6.15 278.44-6.15 280.67-6.15 283.07-7.95L283.07-7.95 283.07-18.75Q280.07-19.35 278.62-19.35L278.62-19.35Q276.37-19.35 275.12-17.75 273.87-16.15 273.87-12.95ZM317.81-35L317.81-35Q323.71-35 327.54-30.5 331.36-26 331.36-19.05L331.36-19.05Q331.36-10.25 326.81-4.85 322.26 0.55 314.86 0.55L314.86 0.55Q309.11 0.55 305.21-4.08 301.31-8.7 301.31-15.5L301.31-15.5Q301.31-24 305.96-29.5 310.61-35 317.81-35ZM324.56-16.25L324.56-16.25Q324.56-28.9 316.26-28.9L316.26-28.9Q312.46-28.9 310.29-26.08 308.11-23.25 308.11-17.63 308.11-12 310.44-8.38 312.76-4.75 316.59-4.75 320.41-4.75 322.49-7.83 324.56-10.9 324.56-16.25ZM341.76 0L341.76 0Q339.06 0 337.38-1.78 335.71-3.55 335.71-6.45L335.71-6.45 336.01-12.2 335.46-24.2 342.16-25.45 341.51-10.25Q341.51-8.1 342.28-7.1 343.06-6.1 344.76-6.1 346.46-6.1 349.46-7.8L349.46-7.8 349.46-10.8 348.91-23.95 355.66-25.2 355.06-12.7 355.11-8.6Q355.11-5.4 356.76-2.15L356.76-2.15 351.56 0.15Q349.91-3.1 349.56-5.05L349.56-5.05Q345.06 0 341.76 0ZM360.31-24.2L363.21-24.2 363.21-29.65 369.96-30.95 369.31-24.2 375.36-24.2 374.81-20.1 369.11-20.1 368.86-9.65Q368.86-7.3 369.31-6.53 369.76-5.75 370.96-5.75 372.16-5.75 374.16-6.3L374.16-6.3 374.46-2.75Q371.16 0 368.66 0 366.16 0 364.56-1.83 362.96-3.65 362.96-6.6L362.96-6.6 363.26-12.2 363.21-20.1 359.76-20.1 360.31-24.2ZM378.1-3.28Q378.1-4.95 379.3-6.18 380.5-7.4 382.1-7.4 383.7-7.4 384.53-6.53 385.35-5.65 385.35-3.95 385.35-2.25 384.2-0.98 383.05 0.3 381.48 0.3 379.9 0.3 379-0.65 378.1-1.6 378.1-3.28ZM379.9-33.75L387.45-35 384.65-12.85 379.9-12.15 379.9-33.75Z" opacity="1" transform="matrix(1,0,0,1,0,0)" fill="#000000" class="slogan-text-1" data-fill-palette-color="secondary" id="text-1"></path></svg></g></svg></g></svg></g></svg></g><g transform="matrix(1,0,0,1,113.99833670399998,179.804140463469)"><svg viewBox="0 0 169.50092659199996 231.13762717090904" height="231.13762717090904" width="169.50092659199996"><g><svg xmlns="http://www.w3.org/2000/svg" viewBox="10 2 44 60" x="0" y="0" height="231.13762717090904" width="169.50092659199996" class="icon-icon-0" data-fill-palette-color="accent" id="icon-0"><g data-name="Layer 5" fill="#000000" data-fill-palette-color="accent"><path class="cls-1" d="M20 25.6A5.55 5.55 0 0 0 23.87 24a0.39 0.39 0 0 0 0.1-0.42 4.2 4.2 0 0 0-7.94 0 0.39 0.39 0 0 0 0.1 0.42A5.55 5.55 0 0 0 20 25.6Z" fill="none"></path><circle class="cls-1" cx="20" cy="18" r="1.8" fill="none"></circle><path d="M20 15.2A1.8 1.8 0 1 1 18.2 17 1.81 1.81 0 0 1 20 15.2Zm-4 7.42a4.2 4.2 0 0 1 7.94 0 0.39 0.39 0 0 1-0.1 0.42 5.58 5.58 0 0 1-7.74 0A0.39 0.39 0 0 1 16 22.62Z" fill="#000000" data-fill-palette-color="accent"></path><path d="M20 31.2A1.8 1.8 0 1 1 18.2 33 1.81 1.81 0 0 1 20 31.2Zm-4 7.42a4.2 4.2 0 0 1 7.94 0 0.39 0.39 0 0 1-0.1 0.42 5.58 5.58 0 0 1-7.74 0A0.39 0.39 0 0 1 16 38.62Z" fill="#000000" data-fill-palette-color="accent"></path><path d="M20 47.2A1.8 1.8 0 1 1 18.2 49 1.81 1.81 0 0 1 20 47.2Zm-4 7.42a4.2 4.2 0 0 1 7.94 0 0.39 0.39 0 0 1-0.1 0.42 5.58 5.58 0 0 1-7.74 0A0.39 0.39 0 0 1 16 54.62Z" fill="#000000" data-fill-palette-color="accent"></path><path d="M52 2H12a2 2 0 0 0-2 2V60a2 2 0 0 0 2 2H52a2 2 0 0 0 2-2V4A2 2 0 0 0 52 2ZM24.48 56A6 6 0 0 1 14 52a6 6 0 0 1 12 0A5.93 5.93 0 0 1 24.48 56Zm0-16A6 6 0 0 1 14 36a6 6 0 0 1 12 0A5.93 5.93 0 0 1 24.48 40Zm0-16A6 6 0 0 1 14 20a6 6 0 0 1 12 0A5.93 5.93 0 0 1 24.48 24ZM43 53H29a1 1 0 0 1 0-2H43a1 1 0 0 1 0 2Zm0-16H29a1 1 0 0 1 0-2H43a1 1 0 0 1 0 2Zm0-16H29a1 1 0 0 1 0-2H43a1 1 0 0 1 0 2ZM43 8H21a1 1 0 0 1 0-2H43a1 1 0 0 1 0 2Zm5 47a3 3 0 1 1 3-3A3 3 0 0 1 48 55ZM45.29 34.71l1.42-1.42L48 34.59l1.29-1.3 1.42 1.42L49.41 36l1.3 1.29-1.42 1.42L48 37.41l-1.29 1.3-1.42-1.42L46.59 36ZM48 23a3 3 0 1 1 3-3A3 3 0 0 1 48 23Z" fill="#000000" data-fill-palette-color="accent"></path><circle cx="48" cy="20" r="2.0" fill="#000000" data-fill-palette-color="accent"></circle><circle cx="48" cy="52" r="2.0" fill="#000000" data-fill-palette-color="accent"></circle></g></svg></g></svg></g><g></g></svg></g></svg></g><defs></defs></svg><rect width="239.1127270553448" height="247.2" fill="none" stroke="none" visibility="hidden"></rect></g></svg></g></svg>